<svg xmlns="http://www.w3.org/2000/svg" version="1.1" xmlns:xlink="http://www.w3.org/1999/xlink" xmlns:svgjs="http://svgjs.dev/svgjs" width="100" height="100"><svg width="100" height="100" viewBox="0 0 100 100" xmlns="http://www.w3.org/2000/svg">
  <defs>
    <linearGradient id="SvgjsLinearGradient1001" x1="0" y1="0" x2="1" y2="1">
      <stop offset="0%" stop-color="#4A90E2"></stop>
      <stop offset="100%" stop-color="#9013FE"></stop>
    </linearGradient>
  </defs>
  <!-- 六边形边框 -->
  <polygon points="50,10 85,30 85,70 50,90 15,70 15,30" fill="none" stroke="url(#grad1)" stroke-width="3"></polygon>
  
  <!-- 神经网络节点 -->
  <circle cx="50" cy="50" r="2" fill="url(#grad1)"></circle>
  <circle cx="35" cy="40" r="2" fill="url(#grad1)"></circle>
  <circle cx="65" cy="40" r="2" fill="url(#grad1)"></circle>
  <circle cx="35" cy="60" r="2" fill="url(#grad1)"></circle>
  <circle cx="65" cy="60" r="2" fill="url(#grad1)"></circle>
  
  <!-- 曲线连接 -->
  <path d="M35,40 C40,45 45,50 50,50" stroke="url(#grad1)" stroke-width="2" fill="none"></path>
  <path d="M65,40 C60,45 55,50 50,50" stroke="url(#grad1)" stroke-width="2" fill="none"></path>
  <path d="M35,60 C40,55 45,50 50,50" stroke="url(#grad1)" stroke-width="2" fill="none"></path>
  <path d="M65,60 C60,55 55,50 50,50" stroke="url(#grad1)" stroke-width="2" fill="none"></path>
  
  <!-- 直线连接 -->
  <line x1="35" y1="40" x2="35" y2="60" stroke="url(#grad1)" stroke-width="2"></line>
  <line x1="65" y1="40" x2="65" y2="60" stroke="url(#grad1)" stroke-width="2"></line>
  <line x1="35" y1="40" x2="65" y2="40" stroke="url(#grad1)" stroke-width="2"></line>
  <line x1="35" y1="60" x2="65" y2="60" stroke="url(#grad1)" stroke-width="2"></line>
</svg><style>@media (prefers-color-scheme: light) { :root { filter: none; } }
@media (prefers-color-scheme: dark) { :root { filter: none; } }
</style></svg>